<?xml version="1.0" encoding="UTF-8"?><svg id="_Слой_1" xmlns="http://www.w3.org/2000/svg" viewBox="0 0 96 96"><defs><style>.cls-1{fill:#fff;}.cls-2{fill:#3171af;}</style></defs><rect class="cls-2" width="96" height="96" rx="9.24" ry="9.24"/><g><g><path class="cls-1" d="M33.12,78.03h-3.23l-1.28-2.88h-5.88l-1.21,2.88h-3.15l5.73-12.67h3.14l5.89,12.67Zm-5.47-5.01l-2.03-4.7-1.99,4.7h4.01Z"/><path class="cls-1" d="M34.8,65.36h11.7v12.67h-2.97v-10.55h-5.76v10.55h-2.97v-12.67Z"/><path class="cls-1" d="M49.91,65.36h10.99v2.13h-8.02v2.94h3.97c1.1,0,2.01,.12,2.73,.35,.72,.23,1.34,.66,1.85,1.28s.77,1.35,.77,2.19-.26,1.59-.77,2.2c-.52,.61-1.1,1.03-1.76,1.25-.66,.22-1.6,.34-2.81,.34h-6.94v-12.67Zm2.97,10.55h2.89c.92,0,1.57-.04,1.95-.12,.37-.08,.7-.26,.98-.53,.28-.28,.42-.62,.42-1.02,0-.59-.24-1.02-.73-1.28-.48-.27-1.31-.4-2.48-.4h-3.02v3.35Z"/></g><path class="cls-1" d="M81.8,13.1V82.9H14.2V13.1H81.8m3.9-4.03H10.3V86.92H85.7V9.08h0Z"/></g></svg>